<svg id="Warstwa_1" data-name="Warstwa 1" xmlns="http://www.w3.org/2000/svg" viewBox="0 0 227.82 86.7">
  <defs>
    <style>
      .cls-1 {
        fill: #94012e;
      }

      .cls-2 {
        fill: #d30b54;
      }

      .cls-3 {
        fill: #c9373a;
      }

      .cls-4 {
        fill: #f47064;
      }
    </style>
  </defs>
  <g>
    <path class="cls-1" d="M81,64.29,65.47,35.13,11.08,64.05l34.5.34Z" transform="translate(-11.08 -1.8)"/>
    <path class="cls-2" d="M50,6,65.47,35.13,11.08,64.05l19-28.8Z" transform="translate(-11.08 -1.8)"/>
  </g>
  <g>
    <path class="cls-3" d="M88.1,60.21,72.6,31.07,127,2.15,108,30.94Z" transform="translate(-11.08 -1.8)"/>
    <path class="cls-4" d="M57.11,1.93,72.6,31.07,127,2.15,92.5,1.8Z" transform="translate(-11.08 -1.8)"/>
  </g>
  <g>
    <path class="cls-2" d="M159.15,64.56H136.7l.46-2.58c6.62-.73,7.36-1.56,6.9-5.52-.46-3.77-1.2-8.37-2-13.71H122.72c-1.57,3-4.69,8.28-6.81,12.42-2.85,5.43-1.47,6.08,5.61,6.81L121,64.56H99.9l.65-2.58c5.88-.73,7.08-1.29,11.59-8.83L140.38,4l3-.46c4,27.05,6.07,39.38,7.91,50.51,1,6.44,1.75,7.27,8.46,7.91ZM138,15.16h-.18c-4.7,8.55-9.39,16.92-13.16,23.91h16.83Z" transform="translate(-11.08 -1.8)"/>
    <path class="cls-2" d="M159.79,64.56V62c7.55-.83,8.28-1.19,8.28-9V16.44c0-7.91-.73-8.28-8.28-9.1V4.76h24.66V7.34c-7.64.82-8.37,1.19-8.37,9.1V53c0,7.91.73,8.18,8.37,9v2.58Z" transform="translate(-11.08 -1.8)"/>
    <path class="cls-2" d="M222.9,32.17c8.84,1.48,16,5.71,16,14.63C238.9,53.06,235.41,58,230,61c-4.79,2.67-9.48,3.59-15.92,3.59H191.44V62c7.82-.73,8.28-1.56,8.28-8.83V16.29c0-7.64-.83-8.28-8.28-8.92V4.76h24.1c6.9,0,11.23,1.2,14.17,3.22a12,12,0,0,1,5.43,10.31C235.14,26.93,228.06,30.89,222.9,32.17Zm-10.59-1.1c10.12,0,14.26-4.05,14.26-11.59,0-6.44-4-11.41-12.78-11.41-2.58,0-4.24.28-5.16.92-.73.55-1,1.57-1,4.51V31.07ZM207.62,53c0,6.62,1.57,8.28,8.1,8.28,7.17,0,14.17-3.87,14.17-13.53,0-9.38-6.58-13.43-17.84-13.43h-4.42Z" transform="translate(-11.08 -1.8)"/>
  </g>
  <g>
    <path class="cls-4" d="M12.38,88.13v-.67c2-.21,2.16-.31,2.16-2.35V75.58c0-2.06-.19-2.16-2.16-2.37v-.68h6.43v.68c-2,.21-2.18.31-2.18,2.37v9.53c0,2.06.19,2.14,2.18,2.35v.67Z" transform="translate(-11.08 -1.8)"/>
    <path class="cls-4" d="M40.24,73.21c-1.53.16-2,.4-2.11,1.51,0,.77-.07,1.77-.07,4v9.62h-.91L26.87,75.8v6c0,2.16.08,3.24.12,3.93.05,1.23.65,1.59,2.38,1.73v.67H23.54v-.67C25,87.34,25.6,87,25.7,85.81c.07-.77.12-1.85.12-4V75.65a2.1,2.1,0,0,0-.51-1.58c-.46-.6-1-.74-2.14-.86v-.68h3.6L37,84.61V78.73c0-2.24,0-3.27-.12-4-.07-1.08-.63-1.41-2.55-1.53v-.68h5.93Z" transform="translate(-11.08 -1.8)"/>
    <path class="cls-4" d="M57.4,76.29a8.36,8.36,0,0,0-.77-2c-.38-.65-.62-.82-1.94-.82H52.31V85.18c0,1.87.19,2.14,2.47,2.28v.67h-7v-.67c2.23-.14,2.42-.38,2.42-2.28V73.49H48c-1.32,0-1.71.15-2.11.87a10.48,10.48,0,0,0-.8,1.93h-.72c.15-1.46.29-3,.36-4.32h.56c.36.58.62.55,1.29.55h9.51a1.2,1.2,0,0,0,1.2-.54h.58c0,1.13.09,2.86.21,4.25Z" transform="translate(-11.08 -1.8)"/>
    <path class="cls-4" d="M75,84.29c-.14.62-.79,3.1-1,3.81H62.31v-.67c2.23-.17,2.4-.38,2.4-2.35V75.63c0-2.14-.26-2.26-2.06-2.42v-.68H73.47c0,.6.12,2.4.22,3.67l-.72.12a8.5,8.5,0,0,0-.72-1.83c-.38-.79-.94-1-2.38-1H67.55c-.74,0-.79.08-.79.77v5.31h2.67c1.8,0,1.92-.36,2.2-2h.75v5h-.75c-.31-1.73-.5-2-2.23-2H66.76v4.72c0,1.68.53,1.82,1.73,1.84h2.23c1.47,0,1.71-.21,2.23-.84a10.61,10.61,0,0,0,1.3-2.2Z" transform="translate(-11.08 -1.8)"/>
    <path class="cls-4" d="M93.31,88.29a5.26,5.26,0,0,1-.89-.05,4.28,4.28,0,0,1-3.75-2.07c-.88-1.22-1.75-2.73-2.52-4-.48-.76-.79-.91-2-.91h-.84V85c0,2,.26,2.16,2.18,2.35v.67H79.07v-.67c2-.21,2.16-.31,2.16-2.35v-9.5c0-2-.26-2.11-2.16-2.32v-.68h6.12a6.76,6.76,0,0,1,3.84.82,3.57,3.57,0,0,1,1.63,3.17c0,2.06-1.31,3.36-3.09,4.13C88,81.39,89,83,89.75,84.08a22.52,22.52,0,0,0,1.9,2.47,3.37,3.37,0,0,0,1.75,1.1Zm-8.86-7.8a4,4,0,0,0,2.64-.7,3.42,3.42,0,0,0,1.32-3,3.25,3.25,0,0,0-2.92-3.52,4.42,4.42,0,0,0-.63,0,2.18,2.18,0,0,0-1.28.24c-.21.17-.28.41-.28,1V80.4Z" transform="translate(-11.08 -1.8)"/>
    <path class="cls-4" d="M113.25,73.21c-1.54.16-2,.4-2.11,1.51,0,.77-.07,1.77-.07,4v9.62h-.92L99.88,75.8v6c0,2.16.07,3.24.12,3.93,0,1.23.65,1.59,2.38,1.73v.67H96.54v-.67c1.49-.12,2.07-.48,2.16-1.65.08-.77.12-1.85.12-4V75.65a2.06,2.06,0,0,0-.51-1.58c-.45-.6-1-.74-2.13-.86v-.68h3.6L110,84.61V78.73c0-2.24,0-3.27-.12-4-.08-1.08-.63-1.41-2.55-1.53v-.68h5.93Z" transform="translate(-11.08 -1.8)"/>
    <path class="cls-4" d="M125.8,88.13v-.67c1.56-.19,1.75-.43,1.42-1.34s-.79-2.14-1.3-3.65h-5.18c-.39,1.08-.75,2-1.08,3-.53,1.56-.2,1.75,1.77,2v.67h-5.54v-.67c1.51-.19,1.89-.36,2.73-2.52l5-12.6.77-.14c1.51,4.1,3.17,8.64,4.68,12.79.77,2.09,1,2.28,2.69,2.47v.67Zm-2.4-12.79c-.77,2.07-1.58,4.25-2.3,6.15h4.48Z" transform="translate(-11.08 -1.8)"/>
    <path class="cls-4" d="M145.82,76.29a9.3,9.3,0,0,0-.77-2c-.39-.65-.63-.82-2-.82h-2.4V85.18c0,1.87.2,2.14,2.48,2.28v.67h-7v-.67c2.23-.14,2.43-.38,2.43-2.28V73.49h-2.19c-1.32,0-1.7.15-2.11.87a9.88,9.88,0,0,0-.79,1.94h-.72c.14-1.46.29-3,.36-4.32h.55c.36.58.62.55,1.3.55h9.5a1.18,1.18,0,0,0,1.22-.55h.63c0,1.13.1,2.86.22,4.25Z" transform="translate(-11.08 -1.8)"/>
    <path class="cls-4" d="M150.93,88.13v-.67c2-.21,2.16-.31,2.16-2.35V75.58c0-2.06-.19-2.16-2.16-2.37v-.68h6.43v.68c-2,.21-2.18.31-2.18,2.37v9.53c0,2.06.19,2.14,2.18,2.35v.67Z" transform="translate(-11.08 -1.8)"/>
    <path class="cls-4" d="M170.18,72.2A7.71,7.71,0,0,1,178,79.85v.27c0,5.16-3.5,8.38-7.92,8.38a7.82,7.82,0,0,1-8-7.64,2.16,2.16,0,0,1,0-.36,8,8,0,0,1,7.69-8.3Zm-.48.89c-2.69,0-5.14,2.25-5.14,6.74s2.45,7.75,5.86,7.75c2.9,0,5.08-2.16,5.08-6.79C175.5,75.75,172.84,73.09,169.7,73.09Z" transform="translate(-11.08 -1.8)"/>
    <path class="cls-4" d="M199.31,73.21c-1.54.16-2,.4-2.11,1.51,0,.77-.08,1.77-.08,4v9.62h-.91L185.92,75.8v6c0,2.16.07,3.24.12,3.93.05,1.23.65,1.59,2.38,1.73v.67h-5.84v-.67c1.49-.12,2.07-.48,2.16-1.65.07-.77.12-1.85.12-4V75.65a2.11,2.11,0,0,0-.48-1.58c-.45-.6-1-.74-2.13-.86v-.68h3.6L196,84.61V78.73a38.09,38.09,0,0,0-.12-4c-.07-1.08-.62-1.41-2.54-1.53v-.68h5.95Z" transform="translate(-11.08 -1.8)"/>
    <path class="cls-4" d="M211.84,88.13v-.67c1.56-.19,1.75-.43,1.42-1.34s-.8-2.14-1.3-3.65h-5.18c-.39,1.08-.75,2-1.08,3-.53,1.56-.2,1.75,1.77,2v.67h-5.54v-.67c1.51-.19,1.89-.36,2.73-2.52l5-12.6.77-.14c1.51,4.1,3.17,8.64,4.68,12.79.77,2.09,1,2.28,2.69,2.47v.67Zm-2.4-12.79c-.77,2.07-1.58,4.25-2.3,6.15h4.48Z" transform="translate(-11.08 -1.8)"/>
    <path class="cls-4" d="M233.2,84.15c-.14.74-.86,3.24-1.1,4H220.94v-.67c2.18-.21,2.37-.33,2.37-2.37V75.56c0-2-.24-2.16-2.16-2.35v-.68h6.43v.68c-1.92.19-2.18.28-2.18,2.35v9.73c0,1.46.19,1.8,1.56,1.82h1.9c1.22,0,1.58-.14,2.13-.74a8.26,8.26,0,0,0,1.47-2.47Z" transform="translate(-11.08 -1.8)"/>
  </g>
</svg>
